<?xml version="1.0" encoding="UTF-8"?>
<svg version="1.1" xmlns="http://www.w3.org/2000/svg" width="512" height="512">
<path d="M0 0 C1.51427582 0.00081573 1.51427582 0.00081573 3.05914307 0.00164795 C19.56873539 0.04241399 35.48532001 0.94970691 51.6875 4.375 C52.72938477 4.59462402 53.77126953 4.81424805 54.84472656 5.04052734 C76.66294622 9.7995802 99.94474958 16.63213279 119.078125 28.47338867 C125.03331546 31.43904386 131.37773633 30.93929454 137.890625 30.9140625 C139.25967977 30.92398453 140.62872121 30.93593147 141.9977417 30.94979858 C145.58005514 30.98198788 149.16206303 30.9925382 152.74450684 30.99664307 C158.49122778 31.00543988 164.2377003 31.04095246 169.98421478 31.0888176 C171.9849842 31.10137026 173.98582508 31.10006352 175.9866333 31.09854126 C177.20179626 31.10550018 178.41695923 31.11245911 179.66894531 31.11962891 C180.73735657 31.12088776 181.80576782 31.12214661 182.90655518 31.1234436 C185.70834027 31.37688515 187.34058089 31.85828515 189.6875 33.375 C194.2252733 40.58551678 195.6015165 50.36308712 197.54910278 58.57354736 C198.13445822 61.03985073 198.73145078 63.50313675 199.32983398 65.96630859 C201.3328421 74.27357903 203.15505684 82.57412703 204.69262695 90.98217773 C206.27179488 99.53237254 207.68260862 106.09898318 213.5234375 112.84765625 C218.02553086 118.10551618 221.27896641 124.37015528 224.6875 130.375 C225.09258789 131.0865625 225.49767578 131.798125 225.91503906 132.53125 C240.66422937 158.73153177 250.18976086 187.66672419 254.6875 217.375 C254.86482666 218.49310059 255.04215332 219.61120117 255.22485352 220.76318359 C256.76916151 231.52454298 257.02729671 242.1644101 257.00317383 253.02685547 C257.00002635 255.97531615 257.02352578 258.92275697 257.04882812 261.87109375 C257.09344438 275.26105903 255.89175057 288.17266733 253.6875 301.375 C253.40531616 303.08042969 253.40531616 303.08042969 253.11743164 304.8203125 C252.65119865 307.41610846 252.13246002 309.9876671 251.5625 312.5625 C251.35786133 313.48844971 251.15322266 314.41439941 250.94238281 315.3684082 C240.60655661 359.81909585 218.29842102 400.55440564 186.6875 433.375 C186.05537598 434.03435547 185.42325195 434.69371094 184.77197266 435.37304688 C175.62752521 444.86130305 166.33015991 453.6012044 155.6875 461.375 C154.53644983 462.23306152 153.38540823 463.09113451 152.234375 463.94921875 C144.04474019 469.98677396 135.54211724 475.36957302 126.6875 480.375 C125.98028809 480.7771875 125.27307617 481.179375 124.54443359 481.59375 C98.39560864 496.31576273 69.37642291 506.01118847 39.6875 510.375 C38.48867188 510.55232666 37.28984375 510.72965332 36.0546875 510.91235352 C24.22866559 512.54088616 12.48591476 512.73402724 0.5625 512.6875 C-0.43172974 512.68534485 -1.42595947 512.6831897 -2.45031738 512.68096924 C-16.91859955 512.63063314 -31.09939071 512.33351704 -45.3125 509.375 C-46.28880371 509.17632324 -47.26510742 508.97764648 -48.27099609 508.77294922 C-91.53876033 499.72069013 -131.73904748 481.33612518 -165.3125 452.375 C-166.05757813 451.74078125 -166.80265625 451.1065625 -167.5703125 450.453125 C-181.07529833 438.64198485 -193.74668743 425.89139772 -204.3125 411.375 C-205.16899066 410.22505169 -206.02576433 409.07531411 -206.8828125 407.92578125 C-212.92284209 399.73565742 -218.30617614 391.23120382 -223.3125 382.375 C-223.7146875 381.66778809 -224.116875 380.96057617 -224.53125 380.23193359 C-237.5566741 357.09654164 -246.30551461 331.92537591 -251.625 305.9375 C-251.77235596 305.21860596 -251.91971191 304.49971191 -252.0715332 303.7590332 C-254.88719001 288.94508256 -255.61285154 274.36732261 -255.51831055 259.31811523 C-255.50000245 256.31290168 -255.49780221 253.30799813 -255.49804688 250.30273438 C-255.47934633 240.35659695 -255.26554775 230.47668177 -254.5246582 220.55688477 C-254.2634879 217.43947296 -254.2634879 217.43947296 -254.40698242 214.57006836 C-254.3125 212.375 -254.3125 212.375 -252.3125 210.375 C-251.60713667 208.16155973 -251.60713667 208.16155973 -251.0859375 205.5546875 C-250.86317139 204.55655029 -250.64040527 203.55841309 -250.41088867 202.5300293 C-250.17217041 201.44761963 -249.93345215 200.36520996 -249.6875 199.25 C-239.19007359 153.88974108 -217.64909227 112.94903529 -185.3125 79.375 C-184.68037598 78.71564453 -184.04825195 78.05628906 -183.39697266 77.37695312 C-174.25252521 67.88869695 -164.95515991 59.1487956 -154.3125 51.375 C-153.16144983 50.51693848 -152.01040823 49.65886549 -150.859375 48.80078125 C-142.66974019 42.76322604 -134.16711724 37.38042698 -125.3125 32.375 C-124.60528809 31.9728125 -123.89807617 31.570625 -123.16943359 31.15625 C-100.03404164 18.1308259 -74.86287591 9.38198539 -48.875 4.0625 C-48.15610596 3.91514404 -47.43721191 3.76778809 -46.6965332 3.6159668 C-31.16987908 0.66484793 -15.76936592 -0.03207988 0 0 Z " fill="#5C555F" transform="translate(255.3125,-0.375)"/>
<path d="M0 0 C1.51427582 0.00081573 1.51427582 0.00081573 3.05914307 0.00164795 C19.56873539 0.04241399 35.48532001 0.94970691 51.6875 4.375 C52.72938477 4.59462402 53.77126953 4.81424805 54.84472656 5.04052734 C76.66294622 9.7995802 99.94474958 16.63213279 119.078125 28.47338867 C125.03331546 31.43904386 131.37773633 30.93929454 137.890625 30.9140625 C139.25967977 30.92398453 140.62872121 30.93593147 141.9977417 30.94979858 C145.58005514 30.98198788 149.16206303 30.9925382 152.74450684 30.99664307 C158.49122778 31.00543988 164.2377003 31.04095246 169.98421478 31.0888176 C171.9849842 31.10137026 173.98582508 31.10006352 175.9866333 31.09854126 C177.20179626 31.10550018 178.41695923 31.11245911 179.66894531 31.11962891 C180.73735657 31.12088776 181.80576782 31.12214661 182.90655518 31.1234436 C185.70834027 31.37688515 187.34058089 31.85828515 189.6875 33.375 C194.2252733 40.58551678 195.6015165 50.36308712 197.54910278 58.57354736 C198.13445822 61.03985073 198.73145078 63.50313675 199.32983398 65.96630859 C201.3328421 74.27357903 203.15505684 82.57412703 204.69262695 90.98217773 C206.27179488 99.53237254 207.68260862 106.09898318 213.5234375 112.84765625 C218.02553086 118.10551618 221.27896641 124.37015528 224.6875 130.375 C225.09258789 131.0865625 225.49767578 131.798125 225.91503906 132.53125 C240.66422937 158.73153177 250.18976086 187.66672419 254.6875 217.375 C254.86482666 218.49310059 255.04215332 219.61120117 255.22485352 220.76318359 C256.76916151 231.52454298 257.02729671 242.1644101 257.00317383 253.02685547 C257.00002635 255.97531615 257.02352578 258.92275697 257.04882812 261.87109375 C257.09344438 275.26105903 255.89175057 288.17266733 253.6875 301.375 C253.40531616 303.08042969 253.40531616 303.08042969 253.11743164 304.8203125 C252.65119865 307.41610846 252.13246002 309.9876671 251.5625 312.5625 C251.35786133 313.48844971 251.15322266 314.41439941 250.94238281 315.3684082 C240.8562632 358.74519724 217.66268094 409.09111634 181.6875 437.375 C181.45095703 436.42012695 181.21441406 435.46525391 180.97070312 434.48144531 C173.73550351 405.35424911 165.63737338 376.70000299 155.6875 348.375 C155.45011108 347.6976178 155.21272217 347.0202356 154.96813965 346.32232666 C148.55339828 328.04833912 141.47512486 310.10924724 133.6875 292.375 C132.94959229 290.68503906 132.94959229 290.68503906 132.19677734 288.9609375 C116.95731818 254.15013841 100.16429348 220.11830359 81.26806641 187.14208984 C79.75477724 184.49278193 78.25586685 181.83592107 76.76171875 179.17578125 C71.23186776 169.35877398 65.50728889 159.67267641 59.625 150.0625 C59.00069092 149.03793701 58.37638184 148.01337402 57.7331543 146.95776367 C56.48740459 144.93709499 55.20944126 142.9358773 53.89772034 140.95739746 C52.29626247 138.4791432 51.03922065 135.99726929 49.84405518 133.30171204 C47.52637026 128.56457634 45.03567589 124.48374541 40.6875 121.375 C31.97662061 118.4039788 22.20650618 119.37553861 13.14453125 119.59375 C10.44734155 119.61005951 7.75036229 119.60228707 5.05314636 119.59509277 C-1.29815856 119.59183097 -7.64571673 119.66958478 -13.99600345 119.77731276 C-21.23181007 119.89605471 -28.4670838 119.92318475 -35.70373189 119.94306469 C-50.57493645 119.9859473 -65.44295992 120.14243042 -80.3125 120.375 C-80.30595398 121.28204178 -80.29940796 122.18908356 -80.29266357 123.12361145 C-80.0848606 156.29356886 -80.0848606 156.29356886 -81.5625 171.0625 C-81.69714979 172.5084138 -81.83124747 173.9543791 -81.96484375 175.40039062 C-83.32779194 189.77854258 -85.21394376 204.08672276 -87.3125 218.375 C-87.44124512 219.26493652 -87.56999023 220.15487305 -87.70263672 221.07177734 C-89.81888545 235.577806 -92.59098207 249.9727594 -95.3125 264.375 C-98.64103573 260.34817006 -101.57699419 256.13402625 -104.5 251.8125 C-118.40816845 228.81900277 -118.40816845 228.81900277 -137.3125 211.375 C-138.83265493 211.27098071 -140.35722534 211.22850211 -141.88088989 211.21678162 C-142.84285278 211.2069928 -143.80481567 211.19720398 -144.79592896 211.18711853 C-145.8547226 211.18136307 -146.91351624 211.1756076 -148.00439453 211.16967773 C-149.67269318 211.15482834 -149.67269318 211.15482834 -151.37469482 211.13967896 C-155.06487878 211.10799545 -158.75507563 211.08327944 -162.4453125 211.05859375 C-164.9983657 211.03803014 -167.55141545 211.01703383 -170.10446167 210.99562073 C-176.14633707 210.94599457 -182.18823004 210.90074516 -188.23015392 210.85759836 C-195.10797277 210.80823933 -201.98574364 210.75331626 -208.86351609 210.69791877 C-223.01313262 210.58407474 -237.16279522 210.47724098 -251.3125 210.375 C-251.1609239 208.77266373 -251.00689206 207.17055964 -250.8518219 205.56855774 C-250.76630853 204.67636189 -250.68079515 203.78416605 -250.59269047 202.86493397 C-250.27574249 200.04835159 -249.7169102 197.39999133 -248.96484375 194.66796875 C-248.69373779 193.68022461 -248.42263184 192.69248047 -248.14331055 191.67480469 C-247.84851807 190.64774414 -247.55372559 189.62068359 -247.25 188.5625 C-246.93909424 187.47227539 -246.62818848 186.38205078 -246.30786133 185.25878906 C-236.06192929 150.1575995 -219.07365727 118.18151559 -195.3125 90.375 C-194.35730469 89.25158203 -194.35730469 89.25158203 -193.3828125 88.10546875 C-181.56547532 74.60979379 -168.82698412 61.93941975 -154.3125 51.375 C-153.16255169 50.51850934 -152.01281411 49.66173567 -150.86328125 48.8046875 C-142.67315742 42.76465791 -134.16870382 37.38132386 -125.3125 32.375 C-124.60528809 31.9728125 -123.89807617 31.570625 -123.16943359 31.15625 C-100.03404164 18.1308259 -74.86287591 9.38198539 -48.875 4.0625 C-48.15610596 3.91514404 -47.43721191 3.76778809 -46.6965332 3.6159668 C-31.16987908 0.66484793 -15.76936592 -0.03207988 0 0 Z " fill="#5C5560" transform="translate(255.3125,-0.375)"/>
<path d="M0 0 C15.63793544 -0.2573147 31.27529672 -0.4511056 46.91482544 -0.56993389 C54.17717378 -0.62658313 61.43820462 -0.70376507 68.69970703 -0.82983398 C75.03124863 -0.9397049 81.36183605 -1.01049241 87.69430447 -1.03497344 C91.04647172 -1.04928191 94.39375652 -1.08852832 97.74545288 -1.16303062 C101.49339896 -1.24302045 105.23571142 -1.25387639 108.984375 -1.2487793 C110.63839073 -1.30810135 110.63839073 -1.30810135 112.32582092 -1.36862183 C117.15791296 -1.2976211 119.88859939 -1.0942391 123.41967773 2.38231468 C125.4750651 5.17698128 127.26642772 7.99736244 129 11 C129.94025382 12.43214371 130.88646987 13.86043066 131.84375 15.28125 C132.73432959 16.68423601 133.61957635 18.0906186 134.5 19.5 C134.9964502 20.29132324 135.49290039 21.08264648 136.00439453 21.89794922 C182.20889519 96.04268292 221.15020227 175.04476864 256.5 290.6875 C256.82661621 291.93402344 257.15323242 293.18054688 257.48974609 294.46484375 C258.37897837 297.96681763 259.20732471 301.474997 260 305 C260.27585937 306.17626953 260.55171875 307.35253906 260.8359375 308.56445312 C262.48314867 316.731104 262.48314867 316.731104 261.25195312 319.96459961 C259.96765035 321.63087175 258.65277081 322.82557675 257 324.125 C256.45327637 324.60888184 255.90655273 325.09276367 255.34326172 325.59130859 C253.59794405 327.11050024 251.80860634 328.55701489 250 330 C248.85641452 330.94748678 247.71318093 331.89539843 246.5703125 332.84375 C243.11781115 335.65963035 239.57632962 338.34402766 236 341 C235.42491699 341.43054688 234.84983398 341.86109375 234.25732422 342.3046875 C225.52255391 348.81323777 216.48114384 354.64040377 207 360 C206.29278809 360.4021875 205.58557617 360.804375 204.85693359 361.21875 C192.05737826 368.42500944 178.80467219 374.00988605 165 379 C164.1740332 379.30309082 163.34806641 379.60618164 162.49707031 379.91845703 C161.71686523 380.19415527 160.93666016 380.46985352 160.1328125 380.75390625 C159.4536377 380.99568604 158.77446289 381.23746582 158.07470703 381.48657227 C155.66078685 382.08394507 153.47727575 382.08606523 151 382 C150.92483154 381.27111572 150.84966309 380.54223145 150.7722168 379.79125977 C149.30995153 365.7577132 147.74960885 351.84416405 145 338 C144.62482048 336.06123265 144.24983499 334.12242774 143.875 332.18359375 C133.13739197 277.15014923 115.63188287 224.67189722 94 173 C92.40851587 174.59148413 92.54979294 176.43936057 92.23046875 178.640625 C85.65526138 220.8809496 72.28749554 262.16638486 57 302 C56.34 301.67 55.68 301.34 55 301 C54.25427195 298.39927343 53.61186376 295.82039268 53 293.1875 C44.43123109 258.92890275 28.7021677 226.48273095 13 195 C12.49645996 193.9888916 11.99291992 192.9777832 11.47412109 191.93603516 C6.85369252 182.72140415 2.06145364 173.65826679 -3.3046875 164.85546875 C-3.67306732 164.24813904 -4.04144714 163.64080933 -4.42098999 163.01507568 C-6.22968192 160.03767908 -8.05676621 157.0750263 -9.92138672 154.13232422 C-16.46484356 143.49062226 -15.32348355 137.31537563 -12.625 125.4375 C-10.85008621 117.56905952 -9.48398073 109.75690826 -8.47363281 101.75219727 C-8.02901671 98.2298752 -7.54084163 94.71712759 -7.03515625 91.203125 C-5.23188023 78.43380818 -3.6494083 65.66299546 -2.50265503 52.81750488 C-2.32423377 50.81893477 -2.13809591 48.82105781 -1.95141602 46.82324219 C-0.59393017 31.26002163 -0.40306199 15.61057103 0 0 Z " fill="#DE4F3F" transform="translate(175,120)"/>
<path d="M0 0 C0.89728317 -0.00426498 1.79456635 -0.00852997 2.71903992 -0.01292419 C3.70609421 -0.01247101 4.6931485 -0.01201782 5.71011353 -0.0115509 C6.74761246 -0.01490952 7.78511139 -0.01826813 8.85404968 -0.02172852 C12.29778223 -0.03125927 15.74146626 -0.03318273 19.18521118 -0.03425598 C21.57173686 -0.0374672 23.95826234 -0.04083116 26.3447876 -0.04434204 C31.35344906 -0.05033871 36.36209325 -0.0521814 41.37075806 -0.05158997 C47.79594082 -0.05148834 54.22101309 -0.06513882 60.64616966 -0.08236217 C65.57717398 -0.09346876 70.50815148 -0.09550958 75.43916702 -0.09498024 C77.80828863 -0.09616245 80.17741089 -0.10059765 82.54652023 -0.10831261 C85.85764093 -0.1180849 89.16852038 -0.11524523 92.47964478 -0.10920715 C93.4626506 -0.11482666 94.44565643 -0.12044617 95.45845032 -0.12623596 C96.81283455 -0.11994423 96.81283455 -0.11994423 98.19458008 -0.11352539 C98.97735006 -0.11407016 99.76012005 -0.11461493 100.56661034 -0.1151762 C103.02368072 0.16824972 104.62254773 0.84561574 106.72427368 2.13371277 C111.26204698 9.34422955 112.63829018 19.12179989 114.58587646 27.33226013 C115.1712319 29.7985635 115.76822446 32.26184951 116.36660767 34.72502136 C118.36961578 43.0322918 120.19183052 51.3328398 121.72940063 59.7408905 C123.30856856 68.29108531 124.7193823 74.85769595 130.56021118 81.60636902 C135.06230454 86.86422895 138.31574009 93.12886805 141.72427368 99.13371277 C142.33190552 100.20105652 142.33190552 100.20105652 142.95181274 101.28996277 C157.70100305 127.49024454 167.22653454 156.42543696 171.72427368 186.13371277 C171.90160034 187.25181335 172.078927 188.36991394 172.2616272 189.52189636 C173.80593519 200.28325575 174.06407039 210.92312287 174.03994751 221.78556824 C174.03680003 224.73402891 174.06029947 227.68146974 174.08560181 230.62980652 C174.13021806 244.0197718 172.92852425 256.9313801 170.72427368 270.13371277 C170.53615112 271.27066589 170.34802856 272.40761902 170.15420532 273.57902527 C169.68797233 276.17482123 169.1692337 278.74637987 168.59927368 281.32121277 C168.39463501 282.24716248 168.18999634 283.17311218 167.97915649 284.12712097 C157.89303688 327.50391001 134.69945462 377.84982911 98.72427368 406.13371277 C98.48773071 405.17883972 98.25118774 404.22396667 98.00747681 403.24015808 C90.77227719 374.11296188 82.67414706 345.45871576 72.72427368 317.13371277 C72.48688477 316.45633057 72.24949585 315.77894836 72.00491333 315.08103943 C65.59017197 296.80705189 58.51189854 278.86796001 50.72427368 261.13371277 C50.23233521 260.00707214 49.74039673 258.88043152 49.23355103 257.71965027 C41.93557736 241.04922304 34.20866587 224.61287348 26.21165466 208.26782227 C25.57810191 206.97019227 24.94831921 205.67071429 24.32246399 204.36935425 C23.04984698 201.73918733 21.75503657 199.18341357 20.21646118 196.69767761 C15.47241707 188.855093 15.5158379 180.04561514 14.92373657 171.11936951 C14.58056296 165.98258144 14.16385809 160.85159911 13.75552368 155.71965027 C13.6737085 154.67126984 13.59189331 153.6228894 13.50759888 152.54273987 C10.84691076 119.06477654 5.92144633 85.92922276 -1.27572632 53.13371277 C-1.41383728 52.5035022 -1.55194824 51.87329163 -1.69424438 51.22398376 C-2.60212816 47.08560257 -3.5178033 42.94902403 -4.44158936 38.81416321 C-4.74314495 37.46416828 -5.04381192 36.11397449 -5.34350586 34.76356506 C-6.89179267 27.80352366 -8.51767846 20.92498525 -10.68930054 14.13053894 C-11.53365605 11.25544162 -11.82601373 9.09150759 -11.27572632 6.13371277 C-7.70250056 1.90226121 -5.47133324 0.01172496 0 0 Z " fill="#4988F7" transform="translate(338.2757263183594,30.866287231445313)"/>
<path d="M0 0 C1.44255913 -0.01496269 1.44255913 -0.01496269 2.91426086 -0.03022766 C3.97297897 -0.03089233 5.03169708 -0.03155701 6.12249756 -0.03224182 C7.23481247 -0.04056534 8.34712738 -0.04888885 9.4931488 -0.0574646 C13.18701636 -0.08164917 16.88070755 -0.09034782 20.574646 -0.09693909 C23.13574275 -0.10590014 25.69683894 -0.11502188 28.25793457 -0.1242981 C33.6348432 -0.14081448 39.01168053 -0.14852601 44.38861084 -0.15138245 C50.59739574 -0.15501396 56.80568515 -0.18487683 63.0143187 -0.22678703 C68.99015798 -0.2657081 74.9657234 -0.27697596 80.9417038 -0.2781086 C83.48224317 -0.28231828 86.02278269 -0.29478231 88.56324005 -0.31562614 C92.11858723 -0.34246983 95.67256965 -0.33773414 99.22796631 -0.32521057 C100.27858749 -0.34004486 101.32920868 -0.35487915 102.41166687 -0.37016296 C110.37789018 -0.2902241 110.37789018 -0.2902241 113.99890137 2.66146851 C118.06164956 7.0204683 121.73558516 11.60399604 125.434021 16.27415466 C126.61738037 17.69921326 126.61738037 17.69921326 127.824646 19.15306091 C170.14075944 70.5859597 212.36112144 145.83675735 223.434021 212.27415466 C182.844021 212.27415466 142.254021 212.27415466 100.434021 212.27415466 C99.1787772 208.50842328 97.97709115 204.79020652 96.87542725 200.98509216 C77.96603462 136.80387637 44.04898354 55.42811914 -5.30426025 8.62571716 C-6.565979 7.27415466 -6.565979 7.27415466 -6.878479 4.71165466 C-6.29709449 0.17685543 -4.02785574 0.0223417 0 0 Z " fill="#0EA35F" transform="translate(7.56597900390625,209.72584533691406)"/>
<path d="M0 0 C2.47489706 2.37914308 4.5964186 4.65241944 6.41796875 7.5625 C6.85874756 8.26213867 7.29952637 8.96177734 7.75366211 9.68261719 C8.46341187 10.82972168 8.46341187 10.82972168 9.1875 12 C9.69869385 12.81887695 10.2098877 13.63775391 10.73657227 14.48144531 C12.49957295 17.31577793 14.25091993 20.15705664 16 23 C16.99483398 24.61358398 16.99483398 24.61358398 18.00976562 26.25976562 C27.68938098 41.97830688 37.08800919 57.83054154 46 74 C46.51981445 74.94198242 47.03962891 75.88396484 47.57519531 76.85449219 C59.749585 98.98090294 71.46725388 121.31994262 82.1875 144.1875 C82.50378357 144.86095459 82.82006714 145.53440918 83.14593506 146.22827148 C84.61914635 149.3725377 86.07702163 152.52228231 87.50146484 155.68896484 C88.41811036 157.71430639 89.36043053 159.72857431 90.34619141 161.72119141 C93.45884889 168.41094307 93.15146884 173.79918202 92 181 C91.80712402 182.30396729 91.80712402 182.30396729 91.61035156 183.63427734 C85.07620184 224.01532266 71.62043342 263.90450447 57 302 C56.34 301.67 55.68 301.34 55 301 C54.25427195 298.39927343 53.61186376 295.82039268 53 293.1875 C44.43123109 258.92890275 28.7021677 226.48273095 13 195 C12.49645996 193.9888916 11.99291992 192.9777832 11.47412109 191.93603516 C6.85369252 182.72140415 2.06145364 173.65826679 -3.3046875 164.85546875 C-3.67306732 164.24813904 -4.04144714 163.64080933 -4.42098999 163.01507568 C-6.22968192 160.03767908 -8.05676621 157.0750263 -9.92138672 154.13232422 C-16.46484356 143.49062226 -15.32348355 137.31537563 -12.625 125.4375 C-10.85008621 117.56905952 -9.48398073 109.75690826 -8.47363281 101.75219727 C-8.02901671 98.2298752 -7.54084163 94.71712759 -7.03515625 91.203125 C-2.75183598 60.87217575 -0.54698569 30.62213285 0 0 Z " fill="#FED03D" transform="translate(175,120)"/>
<path d="M0 0 C4.40171498 4.03357154 7.47803003 8.44446787 10.625 13.5 C11.14425049 14.33241211 11.66350098 15.16482422 12.19848633 16.02246094 C30.50336671 45.78766748 42.76207415 78.40267431 48 113 C48.17732666 114.11810059 48.35465332 115.23620117 48.53735352 116.38818359 C50.08166151 127.14954298 50.33979671 137.7894101 50.31567383 148.65185547 C50.31252635 151.60031615 50.33602578 154.54775697 50.36132812 157.49609375 C50.40594438 170.88605903 49.20425057 183.79766733 47 197 C46.81187744 198.13695312 46.62375488 199.27390625 46.42993164 200.4453125 C45.96369865 203.04110846 45.44496002 205.6126671 44.875 208.1875 C44.67036133 209.11344971 44.46572266 210.03939941 44.25488281 210.9934082 C34.1687632 254.37019724 10.97518094 304.71611634 -25 333 C-25.23654297 332.04512695 -25.47308594 331.09025391 -25.71679688 330.10644531 C-32.95199649 300.97924911 -41.05012662 272.32500299 -51 244 C-51.23738892 243.3226178 -51.47477783 242.6452356 -51.71936035 241.94732666 C-58.13410172 223.67333912 -65.21237514 205.73424724 -73 188 C-73.73790771 186.31003906 -73.73790771 186.31003906 -74.49072266 184.5859375 C-81.53313056 168.49928744 -88.97607805 152.64020162 -96.70776367 136.87475586 C-97.20277122 135.86412834 -97.20277122 135.86412834 -97.70777893 134.83308411 C-98.60218736 133.00900239 -99.49947355 131.18633253 -100.39697266 129.36376953 C-102.0279241 125.94140448 -103.53010617 122.49384595 -105 119 C-101.92797034 120.37017886 -99.8268358 121.92679029 -97.45977783 124.30644226 C-96.77587982 124.9890361 -96.09198181 125.67162994 -95.38735962 126.37490845 C-94.64754852 127.12348114 -93.90773743 127.87205383 -93.14550781 128.64331055 C-92.35798126 129.43215134 -91.57045471 130.22099213 -90.75906372 131.03373718 C-88.15246275 133.64683699 -85.55290741 136.26683657 -82.953125 138.88671875 C-81.14005644 140.70605926 -79.32647074 142.52488454 -77.51239014 144.34321594 C-73.21903615 148.6485264 -68.92980206 152.95789809 -64.64288592 157.26961786 C-56.5286909 165.43070018 -48.40755504 173.58485281 -40.28218842 181.73481178 C-37.62102667 184.40615297 -34.9633326 187.08090821 -32.30596924 189.75602722 C-30.66145507 191.4073754 -29.01682795 193.05861112 -27.37207031 194.7097168 C-26.27449905 195.8173941 -26.27449905 195.8173941 -25.15475464 196.94744873 C-21.15210964 200.95882046 -17.05517431 204.79002116 -12.7505455 208.47641563 C-10.10728893 210.77696959 -7.65866784 213.22963518 -5.1875 215.71484375 C-4.68831055 216.21544815 -4.18912109 216.71605255 -3.67480469 217.23182678 C-2.1141263 218.79800764 -0.55700153 220.36766471 1 221.9375 C2.07137887 223.01390654 3.14299182 224.09008014 4.21484375 225.16601562 C6.81259638 227.77466745 9.40717962 230.38644471 12 233 C15.3464806 215.01573935 14.16377256 196.01729707 14.125 177.8125 C14.12272239 176.41363532 14.12048475 175.01477057 14.11828613 173.61590576 C14.02128027 118.57293318 11.52574586 63.05104542 0.69921875 8.9296875 C0.14547007 5.81755804 -0.17011933 3.13775651 0 0 Z " fill="#437BE8" transform="translate(462,104)"/>
<path d="M0 0 C4.40171498 4.03357154 7.47803003 8.44446787 10.625 13.5 C11.14425049 14.33241211 11.66350098 15.16482422 12.19848633 16.02246094 C30.50336671 45.78766748 42.76207415 78.40267431 48 113 C48.17732666 114.11810059 48.35465332 115.23620117 48.53735352 116.38818359 C50.08166151 127.14954298 50.33979671 137.7894101 50.31567383 148.65185547 C50.31252635 151.60031615 50.33602578 154.54775697 50.36132812 157.49609375 C50.40594438 170.88605903 49.20425057 183.79766733 47 197 C46.81187744 198.13695312 46.62375488 199.27390625 46.42993164 200.4453125 C45.96369865 203.04110846 45.44496002 205.6126671 44.875 208.1875 C44.67036133 209.11344971 44.46572266 210.03939941 44.25488281 210.9934082 C37.6323478 239.47456002 26.12488461 269.06364443 9 293 C8.67 293 8.34 293 8 293 C8.52285377 284.39226371 9.17859939 275.82370506 10.0534668 267.24365234 C14.12854248 226.85558498 14.37592865 186.55435571 14 146 C13.9926886 145.10071777 13.9853772 144.20143555 13.97784424 143.27490234 C13.60115123 98.57852357 9.47388613 52.79388412 0.69921875 8.9296875 C0.14547007 5.81755804 -0.17011933 3.13775651 0 0 Z " fill="#5B5560" transform="translate(462,104)"/>
<path d="M0 0 C3.99212123 1.56334818 6.41597694 4.36057132 9.1875 7.5 C9.67162354 8.03826416 10.15574707 8.57652832 10.65454102 9.13110352 C12.10843326 10.74932595 13.55460716 12.37418716 15 14 C16.47823343 15.64667159 17.95733119 17.29256788 19.4375 18.9375 C20.16066406 19.74316406 20.88382813 20.54882812 21.62890625 21.37890625 C25.37301723 25.51778346 29.16728802 29.6099791 32.95703125 33.70703125 C37.20071432 38.29570729 41.42040541 42.90631603 45.64111328 47.51611328 C47.92642496 50.01164407 50.2132958 52.50574527 52.5 55 C53.41667404 55.99999325 54.3333407 56.99999324 55.25 58 C55.70375 58.495 56.1575 58.99 56.625 59.5 C58 61 59.375 62.5 60.75 64 C61.2039917 64.4952417 61.6579834 64.9904834 62.12573242 65.50073242 C63.04004618 66.49820991 63.95427181 67.49576818 64.8684082 68.4934082 C67.19534911 71.03268091 69.52392474 73.57042141 71.85546875 76.10546875 C72.3254126 76.6169043 72.79535645 77.12833984 73.27954102 77.65527344 C74.20787119 78.66553877 75.13673296 79.67531592 76.06616211 80.68457031 C79.60556066 84.53873878 83.04600831 88.47182679 86.44140625 92.453125 C87.87060441 94.23481115 87.87060441 94.23481115 90 94 C87.926257 103.27780461 85.03688635 112.17884677 81.92138672 121.14477539 C81.12809805 123.428581 80.34273636 125.71499313 79.55859375 128.00195312 C76.549798 136.7413334 73.39280806 145.40105151 70 154 C69.34 153.67 68.68 153.34 68 153 C67.25427195 150.39927343 66.61186376 147.82039268 66 145.1875 C57.43124614 110.92896292 41.70231805 78.48262015 26 47 C25.22873779 45.45143311 25.22873779 45.45143311 24.44189453 43.87158203 C17.36199231 29.75094399 9.49738373 16.23351757 1.09472656 2.85986328 C0 1 0 1 0 0 Z " fill="#F5BD35" transform="translate(162,268)"/>
</svg>
